# xmcd
#
# Track frame offsets: 
#        150
#        18313
#        32628
#        52850
#        65739
#        79224
#        93361
#        105040
#        118321
#        136194
#        161049
#        176542
#        198117
#
# Disc length: 2936 seconds
#
# Revision: 0
# Processed by: cddbd v1.5.2PL0 Copyright (c) Steve Scherf et al.
# Submitted via: ExactAudioCopyFreeDBPlugin 1.0
#
DISCID=9f0b760d
DTITLE=Charlotte Yates - Beggar's Choice
DYEAR=2008
DGENRE=New Zealand: Country/Blues
TTITLE0=Swing Door
TTITLE1=All Roads Lead to Rome
TTITLE2=Black Water
TTITLE3=When You and I Were Blind
TTITLE4=Given Up
TTITLE5=Gifthorse
TTITLE6=Blood Red Moon
TTITLE7=Heaven Scent
TTITLE8=Burn
TTITLE9=Lost
TTITLE10=Look For You
TTITLE11=Beggar's Choice
TTITLE12=Mad
EXTD=
EXTT0=
EXTT1=
EXTT2=
EXTT3=
EXTT4=
EXTT5=
EXTT6=
EXTT7=
EXTT8=
EXTT9=
EXTT10=
EXTT11=
EXTT12=
PLAYORDER=
